<?xml version="1.0" encoding="UTF-8" standalone="no"?>
<!-- Created with Inkscape (http://www.inkscape.org/) -->

<svg
   version="1.1"
   id="svg34"
   width="3200"
   height="1093.3333"
   viewBox="0 0 3200 1093.3333"
   sodipodi:docname="logo_snail_final"
   inkscape:version="1.2.2 (732a01da63, 2022-12-09, custom)"
   xmlns:inkscape="http://www.inkscape.org/namespaces/inkscape"
   xmlns:sodipodi="http://sodipodi.sourceforge.net/DTD/sodipodi-0.dtd"
   xmlns="http://www.w3.org/2000/svg"
   xmlns:svg="http://www.w3.org/2000/svg">
  <defs
     id="defs38" />
  <sodipodi:namedview
     id="namedview36"
     pagecolor="#ffffff"
     bordercolor="#000000"
     borderopacity="0.25"
     inkscape:showpageshadow="2"
     inkscape:pageopacity="0.0"
     inkscape:pagecheckerboard="0"
     inkscape:deskcolor="#d1d1d1"
     showgrid="false"
     inkscape:zoom="0.409375"
     inkscape:cx="1755.1145"
     inkscape:cy="416.48855"
     inkscape:window-width="1920"
     inkscape:window-height="1016"
     inkscape:window-x="0"
     inkscape:window-y="27"
     inkscape:window-maximized="1"
     inkscape:current-layer="g40" />
  <g
     inkscape:groupmode="layer"
     inkscape:label="Image"
     id="g40">
    <g
       id="g274">
      <path
         style="fill:#83cef4;stroke-width:1.06667"
         d="m 1628.8258,976.4916 c -15.0556,-4.22174 -25.4015,-14.87446 -29.5095,-30.38459 -2.7334,-10.31961 -2.5338,-28.26206 0.421,-37.85489 5.8211,-18.89895 19.0958,-29.09475 39.2533,-30.14912 32.2544,-1.68711 50.0722,21.01041 46.2323,58.89385 -1.9928,19.66089 -10.5624,32.00472 -26.3936,38.01772 -7.9556,3.02174 -22.0247,3.71434 -30.0035,1.47703 z m 21.0895,-27.90147 c 4.4944,-3.35557 6.9394,-9.37304 7.4542,-18.34593 0.569,-9.9171 -0.966,-16.03638 -5.2451,-20.91002 -6.3023,-7.17788 -15.2253,-6.99679 -21.4795,0.43591 -3.9391,4.68135 -5.3569,10.84453 -4.8285,20.9882 0.5155,9.89275 2.6015,14.47581 8.3746,18.39891 4.3795,2.97611 11.3135,2.72605 15.7243,-0.56707 z m 78.618,28.06307 c -15.7036,-3.82386 -26.6458,-14.76463 -30.8291,-30.82499 -5.8741,-22.55269 -0.9631,-44.62589 12.7091,-57.12152 7.881,-7.2027 15.2826,-9.97499 28.2534,-10.5824 17.2032,-0.80559 30.078,2.80071 30.7442,8.61151 0.4967,4.33305 -2.778,13.86583 -6.1513,17.90644 -2.9003,3.47412 -2.9003,3.47412 -10.6126,0.99429 -6.8858,-2.21408 -8.3094,-2.3462 -13.2845,-1.23281 -9.2757,2.07577 -14.3629,8.49777 -15.3494,19.37623 -1.3836,15.2583 6.8779,27.68669 18.4041,27.68669 7.4169,0 7.9828,-0.90735 7.9828,-12.8 0,-12.47872 0.2742,-12.8 10.926,-12.8 10.8804,0 10.5104,-0.95001 9.6963,24.89188 -0.8064,25.60177 0.5386,23.15759 -14.2223,25.84426 -9.7426,1.77328 -21.1081,1.79354 -28.2667,0.0504 z m 149.3334,0.82584 c -12.3489,-3.17874 -20.2165,-8.34754 -26.0027,-17.08318 -10.0782,-15.21518 -11.0171,-42.97185 -2.0482,-60.55219 3.326,-6.51954 11.9067,-14.89595 18.7008,-18.25582 8.0715,-3.99146 21.5819,-4.91349 31.7332,-2.16565 12.1061,3.27699 13.8737,7.81066 7.7502,19.87894 -3.8078,7.50438 -4.0754,7.6134 -12.7076,5.17664 -14.093,-3.9783 -24.4983,7.87141 -23.0253,26.22166 1.104,13.75405 9.1601,21.57675 20.8914,20.28637 3.1306,-0.34433 7.0323,-1.3192 8.6705,-2.16638 2.6682,-1.37971 3.1514,-1.34945 4.6353,0.29026 2.7565,3.04592 7.1142,13.34348 7.1252,16.83768 0.021,6.78457 -8.6813,10.92231 -24.5228,11.65911 -4.9867,0.23193 -10.0267,0.17459 -11.2,-0.12744 z m 62.685,-0.40413 c -10.0046,-2.12154 -16.9828,-7.57545 -18.0417,-14.10075 -0.6543,-4.03159 1.752,-13.90515 4.2062,-17.25896 1.4204,-1.94136 1.8161,-1.84819 10.4044,2.45038 12.7207,6.36691 20.707,5.39908 18.7807,-2.27596 -0.5137,-2.04697 -2.7958,-3.80826 -9.3574,-7.22197 -16.1961,-8.42614 -21.3265,-15.79629 -21.4894,-30.87056 -0.077,-7.0897 0.3221,-8.92488 3.0287,-13.94278 7.4823,-13.87199 24.7508,-19.22001 46.2622,-14.32736 9.6914,2.20428 11.469,4.15692 9.9126,10.88877 -0.6422,2.778 -2.1693,7.38527 -3.3934,10.23836 -1.9287,4.49536 -2.5441,5.09666 -4.6118,4.50688 -14.6497,-4.17837 -19.1022,-4.27236 -21.1498,-0.44645 -1.9915,3.72136 -0.021,5.97264 9.3496,10.68413 17.2456,8.67058 22.7474,15.66014 22.7474,28.89857 0,21.48343 -10.8899,32.66564 -32.5333,33.40651 -5.28,0.18074 -11.6318,-0.10218 -14.115,-0.62881 z M 1215.2,976.29501 c -2.287,-0.28381 -3.4667,-1.01082 -3.4667,-2.13647 0,-0.93844 5.3153,-22.14803 11.8118,-47.13241 7.6626,-29.46919 12.4179,-45.89452 13.5372,-46.75949 1.2058,-0.93178 6.5819,-1.33333 17.851,-1.33333 11.3101,0 16.618,0.39816 17.7743,1.33333 1.5129,1.22348 25.9978,94.45012 25.0542,95.39378 -0.2067,0.20664 -4.9187,0.67414 -10.4712,1.03888 -13.7368,0.90232 -17.507,-0.35719 -19.0838,-6.37522 -4.4647,-17.04119 -3.1609,-15.76033 -15.7029,-15.42599 -11.3244,0.30188 -11.3244,0.30188 -13.5914,9.62351 -1.2468,5.12689 -2.5731,9.62787 -2.9474,10.00216 -1.8761,1.87618 -12.5695,2.78832 -20.7651,1.77125 z m 44.5333,-39.75233 c 0,-2.60112 -5.6474,-27.30695 -6.4337,-28.14505 -0.4826,-0.51464 -1.4208,1.16536 -2.0845,3.73333 -0.6637,2.56796 -2.3787,9.05383 -3.8109,14.41305 -1.4324,5.35923 -2.6042,10.03923 -2.6042,10.4 0,0.36078 3.36,0.65596 7.4667,0.65596 4.2225,0 7.4666,-0.45937 7.4666,-1.05729 z m 51.2,39.56955 c -2.6666,-0.74177 -2.6666,-0.74177 -2.6666,-48.69368 0,-47.95191 0,-47.95191 11.9275,-47.91606 9.6014,0.0289 12.3059,0.382 13.8667,1.81064 1.0666,0.97612 6.7391,11.1499 12.6058,22.6084 5.8666,11.4585 11.0266,20.8437 11.4666,20.85603 0.44,0.0124 0.8,-10.00161 0.8,-22.25318 0,-25.74935 -1.1623,-23.55061 12.4639,-23.57651 14.441,-0.0274 13.1361,-4.83136 13.1361,48.36176 0,39.42696 -0.2326,46.48884 -1.5676,47.59689 -1.6538,1.37245 -19.764,1.91681 -23.5586,0.70813 -1.3414,-0.4273 -6.2172,-8.39678 -13.8071,-22.56794 -11.7333,-21.90738 -11.7333,-21.90738 -12.2667,0.20943 -0.5333,22.1168 -0.5333,22.1168 -3.2,22.85732 -3.4469,0.95721 -15.7572,0.95641 -19.2,-10e-4 z m 91.7334,-0.35404 c -2.6667,-1.42076 -2.6667,-1.42076 -2.945,-47.15937 -0.2519,-41.4263 -0.1107,-45.92372 1.4987,-47.70206 1.5768,-1.74235 3.5979,-1.96345 17.949,-1.96345 25.5976,0 35.7505,2.92598 44.7027,12.883 7.453,8.28958 9.7042,16.18476 9.7088,34.05033 0,11.92796 -0.405,15.70409 -2.3777,21.99654 -4.4089,14.06352 -12.5443,22.67351 -25.1756,26.64399 -7.5529,2.3742 -39.5216,3.29653 -43.3609,1.25102 z m 35.033,-26.06043 c 4.8181,-3.10512 7.0683,-10.35105 7.0695,-22.76445 0,-15.90075 -2.5962,-19.92249 -14.1025,-21.8343 -4.5334,-0.75322 -4.5334,-0.75322 -4.5334,22.62943 0,12.86045 0.3524,23.73499 0.783,24.16563 1.097,1.09698 7.788,-0.26581 10.7834,-2.19631 z m 345.8,25.80873 c -1.7461,-2.10394 -2.6225,-13.01804 -1.4164,-17.63985 0.9371,-3.59138 1.1949,-3.75361 6.7788,-4.26667 5.8046,-0.53333 5.8046,-0.53333 6.0905,-25.86666 0.286,-25.33334 0.286,-25.33334 -5.6264,-25.33334 -5.365,0 -6.0087,-0.25328 -6.9527,-2.7361 -1.3756,-3.61854 -1.3331,-16.05686 0.064,-18.66735 1.0424,-1.94775 2.473,-2.06321 25.5625,-2.06321 28.3946,0 26.6667,-0.76025 26.6667,11.73333 0,10.34928 -0.8853,11.73333 -7.5042,11.73333 -5.2958,0 -5.2958,0 -5.2958,25.6 0,25.6 0,25.6 5.9001,25.6 7.1166,0 7.4332,0.50419 7.4332,11.83669 0,12.21327 1.3375,11.62998 -26.6667,11.62998 -19.5303,0 -23.9683,-0.27659 -25.0336,-1.56015 z M 1002.6925,814.35827 c -15.05555,-4.22174 -25.40149,-14.87445 -29.50958,-30.38459 -2.73329,-10.31961 -2.53376,-28.26206 0.42098,-37.85489 5.82118,-18.89895 19.09585,-29.09475 39.2534,-30.14912 32.2544,-1.68711 50.0722,21.01041 46.2323,58.89385 -1.9928,19.66089 -10.5624,32.00472 -26.3936,38.01772 -7.9556,3.02174 -22.0247,3.71434 -30.0035,1.47703 z m 21.0895,-27.90147 c 4.4944,-3.35557 6.9394,-9.37304 7.4542,-18.34593 0.5689,-9.9171 -0.9661,-16.03638 -5.2452,-20.91002 -6.3022,-7.17788 -15.2252,-6.99679 -21.4794,0.43592 -3.9391,4.68134 -5.35698,10.84452 -4.82846,20.98819 0.51546,9.89275 2.60146,14.47582 8.37456,18.39891 4.3795,2.97612 11.3135,2.72605 15.7243,-0.56707 z m 501.5513,28.58876 c -2.6666,-0.74177 -2.6666,-0.74177 -2.6666,-49.227 0,-48.48525 0,-48.48525 26.7963,-48.76994 26.7964,-0.2847 26.7964,-0.2847 27.4667,3.06666 1.0113,5.05645 0.8044,15.39315 -0.3699,18.48192 -1.0403,2.73603 -1.0408,2.73611 -14.4,2.73611 -13.3598,0 -13.3598,0 -13.3598,8 0,8 0,8 9.0931,8 8.7793,0 9.1289,0.0944 10.1334,2.73611 1.1795,3.10251 1.3606,10.32853 0.3814,15.22419 -0.6587,3.29363 -0.6587,3.29363 -9.8667,3.6 -9.2079,0.30637 -9.2079,0.30637 -9.7412,17.86007 -0.5333,17.55372 -0.5333,17.55372 -3.2,18.29368 -3.4507,0.95751 -16.8222,0.95632 -20.2667,-0.002 z m 156.2667,0.30015 c -12.3489,-3.17874 -20.2164,-8.34754 -26.0027,-17.08317 -10.0782,-15.21519 -11.017,-42.97185 -2.0482,-60.55219 3.326,-6.51955 11.9067,-14.89596 18.7008,-18.25583 8.0715,-3.99146 21.5819,-4.91349 31.7332,-2.16565 12.1062,3.277 13.8738,7.81066 7.7502,19.87894 -3.8078,7.50438 -4.0754,7.6134 -12.7076,5.17664 -14.093,-3.9783 -24.4982,7.87141 -23.0253,26.22166 1.104,13.75405 9.1601,21.57676 20.8914,20.28637 3.1306,-0.34433 7.0324,-1.3192 8.6705,-2.16638 2.6682,-1.37971 3.1514,-1.34945 4.6354,0.29026 2.7564,3.04592 7.1141,13.34348 7.1252,16.83768 0.021,6.78457 -8.6814,10.92231 -24.5229,11.65911 -4.9867,0.23193 -10.0267,0.17459 -11.2,-0.12744 z m 819.2,-0.82584 c -15.7037,-3.82386 -26.6459,-14.76463 -30.8291,-30.82499 -5.8742,-22.55268 -0.9631,-44.62589 12.7091,-57.12152 7.881,-7.20269 15.2826,-9.97499 28.2533,-10.5824 17.2032,-0.80558 30.0781,2.80071 30.7442,8.61151 0.4968,4.33305 -2.778,13.86583 -6.1512,17.90645 -2.9004,3.47411 -2.9004,3.47411 -10.6126,0.99428 -6.8859,-2.21408 -8.3094,-2.3462 -13.2846,-1.23281 -9.2756,2.07577 -14.3629,8.49777 -15.3493,19.37623 -1.3836,15.25831 6.8779,27.68669 18.404,27.68669 7.417,0 7.9829,-0.90735 7.9829,-12.8 0,-12.47872 0.2742,-12.8 10.9259,-12.8 10.8805,0 10.5104,-0.95001 9.6964,24.89188 -0.8064,25.60177 0.5385,23.15759 -14.2223,25.84426 -9.7426,1.77328 -21.1081,1.79354 -28.2667,0.0504 z m 249.6,0.82584 c -12.3489,-3.17874 -20.2164,-8.34754 -26.0027,-17.08317 -10.0782,-15.21519 -11.017,-42.97185 -2.0482,-60.55219 3.326,-6.51955 11.9067,-14.89596 18.7008,-18.25583 8.0715,-3.99146 21.5819,-4.91349 31.7332,-2.16565 12.1062,3.277 13.8738,7.81066 7.7502,19.87894 -3.8078,7.50438 -4.0754,7.6134 -12.7076,5.17664 -14.093,-3.9783 -24.4982,7.87141 -23.0253,26.22166 1.104,13.75405 9.1601,21.57676 20.8914,20.28637 3.1306,-0.34433 7.0324,-1.3192 8.6705,-2.16638 2.6682,-1.37971 3.1514,-1.34945 4.6354,0.29026 2.7564,3.04592 7.1141,13.34348 7.1252,16.83768 0.021,6.78457 -8.6814,10.92231 -24.5229,11.65911 -4.9867,0.23193 -10.0267,0.17459 -11.2,-0.12744 z M 397.52378,813.59998 c -1.67221,-1.22688 -1.79494,-5.12322 -1.53721,-48.8 0.2801,-47.46667 0.2801,-47.46667 26.87203,-47.75239 20.5627,-0.22093 26.78657,0.0209 27.45034,1.06667 1.2515,1.97172 1.08262,18.7347 -0.21313,21.15584 -1.00103,1.87043 -2.34652,2.06321 -14.4,2.06321 -13.29581,0 -13.29581,0 -13.29581,7.46667 0,7.46666 0,7.46666 10.05658,7.46666 10.05658,0 10.05658,0 10.67245,5.6 0.33874,3.08 0.23534,7.28 -0.22976,9.33334 -0.84563,3.73333 -0.84563,3.73333 -10.40578,4.26666 -9.56016,0.53334 -9.56016,0.53334 -9.87556,7.73334 -0.3154,7.2 -0.3154,7.2 12.93606,7.2 11.03573,0 13.49624,0.29546 14.71541,1.76708 1.94267,2.34496 1.88217,18.73442 -0.0779,21.09615 -1.18498,1.42782 -4.97396,1.6701 -26.11825,1.6701 -18.10541,0 -25.21911,-0.35726 -26.54948,-1.33333 z m 72.02209,0.34885 c -1.93644,-0.49585 -3.77201,-1.15277 -4.07905,-1.45982 -1.0249,-1.02489 2.85665,-92.97264 3.97172,-94.08395 1.57495,-1.56965 30.80822,-1.38783 33.59174,0.20892 1.6182,0.92828 4.21573,6.92916 9.46487,21.86603 3.97902,11.32264 7.62164,21.30663 8.09471,22.18663 1.09143,2.03026 1.19547,1.75756 9.05965,-23.74492 6.16755,-20.00053 6.16755,-20.00053 10.52568,-21.1839 5.09208,-1.38265 31.10893,-0.74706 32.65372,0.79773 0.55788,0.55789 1.97358,21.85102 3.14597,47.31806 1.65525,35.95609 1.84428,46.4813 0.84582,47.09838 -2.19864,1.35883 -14.22535,2.24505 -19.89156,1.46575 -6.41743,-0.88263 -6.11829,0.0711 -7.03138,-22.41776 -0.9997,-24.62234 -1.90631,-36.04534 -2.73932,-34.51421 -0.6148,1.13005 -7.68742,24.33326 -16.61661,54.51421 -0.46913,1.58566 -1.90012,1.86666 -9.50593,1.86666 -8.95367,0 -8.95367,0 -10.04786,-4 -0.6018,-2.2 -4.64662,-15.52 -8.98849,-29.6 -7.8943,-25.6 -7.8943,-25.6 -8.51842,-18.66666 -0.34326,3.81333 -0.91596,16.53333 -1.27263,28.26666 -0.43541,14.32327 -1.06863,21.76941 -1.92703,22.66043 -1.59105,1.65151 -15.98433,2.6384 -20.7356,1.42176 z m 121.42053,-0.57567 c -1.7461,-2.10394 -2.6225,-13.01804 -1.41646,-17.63985 0.93715,-3.59138 1.1949,-3.75361 6.7788,-4.26667 5.80459,-0.53333 5.80459,-0.53333 6.09057,-25.86666 0.28597,-25.33334 0.28597,-25.33334 -5.6264,-25.33334 -5.36507,0 -6.00868,-0.25328 -6.95264,-2.7361 -1.37577,-3.61854 -1.33318,-16.05686 0.0639,-18.66735 1.04243,-1.94775 2.47301,-2.06321 25.56251,-2.06321 28.3945,0 26.66666,-0.76025 26.66666,11.73333 0,10.34928 -0.88519,11.73333 -7.50419,11.73333 -5.29581,0 -5.29581,0 -5.29581,25.6 0,25.6 0,25.6 5.90014,25.6 7.11658,0 7.4332,0.50419 7.4332,11.8367 0,12.21326 1.33746,11.62997 -26.66667,11.62997 -19.53038,0 -23.96833,-0.27659 -25.0336,-1.56015 z M 744.8,814.16168 c -2.28703,-0.28381 -3.46667,-1.01081 -3.46667,-2.13647 0,-0.93844 5.3153,-22.14803 11.81177,-47.13241 7.66261,-29.46919 12.41787,-45.89452 13.5372,-46.75949 1.2058,-0.93177 6.5819,-1.33333 17.85103,-1.33333 11.31007,0 16.61793,0.39816 17.77426,1.33333 1.51285,1.22348 25.99785,94.45012 25.05418,95.39378 -0.20664,0.20665 -4.91871,0.67414 -10.47124,1.03888 -13.73672,0.90233 -17.50697,-0.35718 -19.08369,-6.37522 -4.46478,-17.04118 -3.16093,-15.76033 -15.703,-15.42598 -11.3243,0.30187 -11.3243,0.30187 -13.59125,9.6235 -1.24683,5.12689 -2.5732,9.62788 -2.94749,10.00216 -1.87618,1.87618 -12.56952,2.78832 -20.7651,1.77125 z m 44.53333,-39.75233 c 0,-2.60112 -5.64748,-27.30695 -6.43366,-28.14505 -0.48274,-0.51464 -1.42079,1.16536 -2.08457,3.73333 -0.66377,2.56796 -2.37872,9.05383 -3.81098,14.41306 -1.43227,5.35922 -2.60412,10.03922 -2.60412,10.4 0,0.36077 3.36,0.65595 7.46667,0.65595 4.2225,0 7.46666,-0.45937 7.46666,-1.05729 z M 839.2,814.19802 c -1.74228,-0.4553 -1.86667,-3.63119 -1.86667,-47.66292 0,-35.26954 0.32303,-47.49815 1.28,-48.45512 1.67215,-1.67215 35.84198,-1.74847 43.73417,-0.0977 16.13472,3.37486 24.15287,13.70679 23.01197,29.65245 -0.60114,8.40167 -3.44938,15.34001 -8.6688,21.11729 -3.81637,4.22425 -3.81637,4.22425 4.6524,18.00277 4.65783,7.57818 8.48111,14.53484 8.49618,15.45924 0.034,2.0853 -3.18977,5.10379 -10.04808,9.40824 -5.74594,3.60629 -12.52887,4.42338 -15.95049,1.92143 -1.04521,-0.76428 -4.87606,-8.32428 -8.51299,-16.8 -6.0109,-14.00814 -6.87567,-15.44111 -9.50349,-15.74792 -2.89087,-0.33749 -2.89087,-0.33749 -2.89087,16.14229 0,16.18845 -0.0424,16.49114 -2.4,17.12294 -2.71559,0.72775 -18.48566,0.6812 -21.33333,-0.0629 z m 33.35469,-53.14242 c 3.96792,-2.05189 5.31198,-4.60759 5.31198,-10.10065 0,-6.2289 -3.55607,-9.62164 -10.08486,-9.62164 -4.84848,0 -4.84848,0 -4.84848,9.95555 0,5.47556 0.32,10.27556 0.71112,10.66667 1.22611,1.22611 5.66611,0.77767 8.91024,-0.89993 z M 1075.2,813.9789 c -2.6667,-0.74177 -2.6667,-0.74177 -2.6667,-48.69368 0,-47.95191 0,-47.95191 11.9276,-47.91606 9.6014,0.0289 12.3058,0.382 13.8667,1.81064 1.0665,0.97612 6.7391,11.14991 12.6057,22.6084 5.8667,11.4585 11.0267,20.8437 11.4667,20.85603 0.44,0.0124 0.8,-10.00161 0.8,-22.25318 0,-25.74934 -1.1623,-23.55061 12.4639,-23.57651 14.441,-0.0274 13.1361,-4.83136 13.1361,48.36176 0,39.42696 -0.2326,46.48884 -1.5677,47.59689 -1.6537,1.37245 -19.7639,1.91681 -23.5585,0.70813 -1.3414,-0.4273 -6.2173,-8.39678 -13.8071,-22.56794 -11.7334,-21.90738 -11.7334,-21.90738 -12.2667,0.20943 -0.5333,22.1168 -0.5333,22.1168 -3.2,22.85733 -3.4469,0.9572 -15.7572,0.9564 -19.2,-10e-4 z m 235.4667,0.21912 c -1.7423,-0.4553 -1.8667,-3.63119 -1.8667,-47.66292 0,-35.26954 0.323,-47.49815 1.28,-48.45512 1.6721,-1.67215 35.842,-1.74847 43.7342,-0.0977 16.1347,3.37486 24.1528,13.70679 23.0119,29.65245 -0.6011,8.40167 -3.4494,15.34001 -8.6688,21.11729 -3.8163,4.22425 -3.8163,4.22425 4.6524,18.00277 4.6578,7.57818 8.4812,14.53484 8.4962,15.45924 0.034,2.0853 -3.1897,5.10379 -10.0481,9.40824 -5.7459,3.60629 -12.5288,4.42338 -15.9505,1.92143 -1.0451,-0.76428 -4.876,-8.32428 -8.513,-16.8 -6.0108,-14.00814 -6.8756,-15.44111 -9.5034,-15.74792 -2.8909,-0.33749 -2.8909,-0.33749 -2.8909,16.14229 0,16.18845 -0.043,16.49114 -2.4,17.12294 -2.7156,0.72775 -18.4857,0.6812 -21.3333,-0.0629 z m 33.3546,-53.14242 c 3.968,-2.05189 5.312,-4.60759 5.312,-10.10065 0,-6.2289 -3.556,-9.62164 -10.0848,-9.62164 -4.8485,0 -4.8485,0 -4.8485,9.95555 0,5.47556 0.32,10.27556 0.7111,10.66667 1.2261,1.22611 5.6661,0.77767 8.9102,-0.89993 z m 64.26,53.00748 c -0.9947,-0.63181 -1.3878,-9.6027 -1.6,-36.517 -0.2813,-35.67944 -0.2813,-35.67944 -9.5758,-35.98706 -9.2945,-0.30763 -9.2945,-0.30763 -10.394,-4.26667 -1.4056,-5.06065 -1.4012,-11.40637 0.012,-16.49237 1.1108,-4 1.1108,-4 32.978,-4 31.8671,0 31.8671,0 33.149,3.88424 1.2889,3.90528 0.9542,17.09506 -0.4932,19.43701 -0.4637,0.75011 -4.1808,1.21208 -9.7528,1.21208 -9.0038,0 -9.0038,0 -9.0038,36.14226 0,36.14226 0,36.14226 -2.4,36.78543 -3.5009,0.93822 -21.3729,0.78387 -22.9187,-0.19792 z m 52.0184,-0.68992 c -1.7461,-2.10394 -2.6225,-13.01804 -1.4164,-17.63985 0.9371,-3.59138 1.1949,-3.75361 6.7788,-4.26667 5.8046,-0.53333 5.8046,-0.53333 6.0905,-25.86666 0.286,-25.33334 0.286,-25.33334 -5.6264,-25.33334 -5.365,0 -6.0087,-0.25328 -6.9527,-2.7361 -1.3756,-3.61854 -1.3331,-16.05686 0.064,-18.66735 1.0424,-1.94775 2.473,-2.06321 25.5625,-2.06321 28.3946,0 26.6667,-0.76025 26.6667,11.73333 0,10.34928 -0.8853,11.73333 -7.5042,11.73333 -5.2958,0 -5.2958,0 -5.2958,25.6 0,25.6 0,25.6 5.9001,25.6 7.1166,0 7.4332,0.50419 7.4332,11.8367 0,12.21326 1.3375,11.62997 -26.6667,11.62997 -19.5303,0 -23.9683,-0.27659 -25.0336,-1.56015 z m 126.9334,0 c -1.7462,-2.10394 -2.6225,-13.01804 -1.4165,-17.63985 0.9371,-3.59138 1.1949,-3.75361 6.7788,-4.26667 5.8046,-0.53333 5.8046,-0.53333 6.0906,-25.86666 0.2859,-25.33334 0.2859,-25.33334 -5.6265,-25.33334 -5.365,0 -6.0086,-0.25328 -6.9526,-2.7361 -1.3757,-3.61854 -1.3331,-16.05686 0.064,-18.66735 1.0423,-1.94775 2.4729,-2.06321 25.5624,-2.06321 28.3946,0 26.6667,-0.76025 26.6667,11.73333 0,10.34928 -0.8852,11.73333 -7.5042,11.73333 -5.2958,0 -5.2958,0 -5.2958,25.6 0,25.6 0,25.6 5.9002,25.6 7.1165,0 7.4331,0.50419 7.4331,11.8367 0,12.21326 1.3375,11.62997 -26.6666,11.62997 -19.5304,0 -23.9684,-0.27659 -25.0336,-1.56015 z m 139.7333,0 c -1.7461,-2.10394 -2.6225,-13.01804 -1.4164,-17.63985 0.937,-3.59138 1.1949,-3.75361 6.7787,-4.26667 5.8046,-0.53333 5.8046,-0.53333 6.0906,-25.86666 0.286,-25.33334 0.286,-25.33334 -5.6264,-25.33334 -5.3651,0 -6.0087,-0.25328 -6.9527,-2.7361 -1.3757,-3.61854 -1.3331,-16.05686 0.064,-18.66735 1.0424,-1.94775 2.473,-2.06321 25.5625,-2.06321 28.3945,0 26.6666,-0.76025 26.6666,11.73333 0,10.34928 -0.8852,11.73333 -7.5042,11.73333 -5.2958,0 -5.2958,0 -5.2958,25.6 0,25.6 0,25.6 5.9002,25.6 7.1166,0 7.4332,0.50419 7.4332,11.8367 0,12.21326 1.3375,11.62997 -26.6667,11.62997 -19.5303,0 -23.9683,-0.27659 -25.0336,-1.56015 z m 62.1003,0.78852 c -2.2871,-0.28381 -3.4667,-1.01081 -3.4667,-2.13647 0,-0.93844 5.3153,-22.14803 11.8117,-47.13241 7.6626,-29.46919 12.418,-45.89452 13.5373,-46.75949 1.2058,-0.93177 6.5819,-1.33333 17.851,-1.33333 11.3101,0 16.6179,0.39816 17.7743,1.33333 1.5128,1.22348 25.9978,94.45012 25.0542,95.39378 -0.2067,0.20665 -4.9187,0.67414 -10.4713,1.03888 -13.7367,0.90233 -17.507,-0.35718 -19.0837,-6.37522 -4.4648,-17.04118 -3.161,-15.76033 -15.7029,-15.42598 -11.3244,0.30187 -11.3244,0.30187 -13.5914,9.6235 -1.2468,5.12689 -2.5731,9.62788 -2.9474,10.00216 -1.8762,1.87618 -12.5695,2.78832 -20.7651,1.77125 z M 1833.6,774.40935 c 0,-2.60112 -5.6475,-27.30695 -6.4337,-28.14505 -0.4827,-0.51464 -1.4208,1.16536 -2.0845,3.73333 -0.6638,2.56796 -2.3788,9.05383 -3.811,14.41306 -1.4323,5.35922 -2.6041,10.03922 -2.6041,10.4 0,0.36077 3.36,0.65595 7.4666,0.65595 4.2225,0 7.4667,-0.45937 7.4667,-1.05729 z m 49.0667,38.39063 c -2.0678,-2.06779 -2.1334,-3.55556 -2.1334,-48.41921 0,-41.22268 0.1846,-46.35671 1.6873,-46.93334 2.8227,-1.08316 21.7801,-0.72214 23.9828,0.45674 1.9748,1.05689 2.0633,2.58821 2.0633,35.73333 0,34.62914 0,34.62914 11.0694,34.62914 13.7746,0 13.8934,0.10794 13.9233,12.63951 0.035,14.84343 1.5229,14.02716 -25.5636,14.02716 -21.4736,0 -23.0283,-0.13251 -25.0291,-2.13333 z m 177.0666,1.17892 c -2.6666,-0.74177 -2.6666,-0.74177 -2.6666,-48.69368 0,-47.95191 0,-47.95191 11.9275,-47.91606 9.6014,0.0289 12.3059,0.382 13.8667,1.81064 1.0666,0.97612 6.7391,11.14991 12.6058,22.6084 5.8666,11.4585 11.0266,20.8437 11.4666,20.85603 0.44,0.0124 0.8,-10.00161 0.8,-22.25318 0,-25.74934 -1.1623,-23.55061 12.4639,-23.57651 14.441,-0.0274 13.1361,-4.83136 13.1361,48.36176 0,39.42696 -0.2326,46.48884 -1.5676,47.59689 -1.6538,1.37245 -19.764,1.91681 -23.5586,0.70813 -1.3414,-0.4273 -6.2172,-8.39678 -13.8071,-22.56794 -11.7333,-21.90738 -11.7333,-21.90738 -12.2667,0.20943 -0.5333,22.1168 -0.5333,22.1168 -3.2,22.85733 -3.4469,0.9572 -15.7572,0.9564 -19.2,-10e-4 z m 104.8146,0.0842 c -0.9946,-0.63181 -1.3877,-9.6027 -1.6,-36.517 -0.2812,-35.67942 -0.2812,-35.67942 -9.5757,-35.98704 -9.2945,-0.30763 -9.2945,-0.30763 -10.3941,-4.26667 -1.4055,-5.06065 -1.4011,-11.40637 0.012,-16.49237 1.1108,-4 1.1108,-4 32.978,-4 31.8671,0 31.8671,0 33.149,3.88424 1.2889,3.90528 0.9541,17.09506 -0.4932,19.43701 -0.4637,0.75011 -4.1808,1.21208 -9.7529,1.21208 -9.0037,0 -9.0037,0 -9.0037,36.14226 0,36.14226 0,36.14226 -2.4,36.78543 -3.5009,0.93822 -21.3729,0.78387 -22.9187,-0.19792 z m 55.9092,-0.46311 c -1.6721,-1.22688 -1.7949,-5.12321 -1.5372,-48.79999 0.2801,-47.46667 0.2801,-47.46667 26.872,-47.75239 20.5628,-0.22094 26.7866,0.0209 27.4503,1.06667 1.2516,1.97172 1.0827,18.7347 -0.2131,21.15584 -1.0009,1.87043 -2.3464,2.06321 -14.4,2.06321 -13.2958,2e-5 -13.2958,2e-5 -13.2958,7.46669 0,7.46666 0,7.46666 10.0566,7.46666 10.0566,0 10.0566,0 10.6725,5.6 0.3387,3.08 0.2353,7.28 -0.2298,9.33334 -0.8456,3.73333 -0.8456,3.73333 -10.4058,4.26666 -9.5601,0.53334 -9.5601,0.53334 -9.8755,7.73334 -0.3155,7.2 -0.3155,7.2 12.9361,7.2 11.0357,0 13.4962,0.29546 14.7154,1.76708 1.9426,2.34496 1.8821,18.73442 -0.078,21.09615 -1.185,1.42782 -4.974,1.6701 -26.1182,1.6701 -18.1054,0 -25.2191,-0.35726 -26.5495,-1.33333 z m 68.6096,-0.79997 c -2.0678,-2.06779 -2.1334,-3.55556 -2.1334,-48.41921 0,-41.22268 0.1846,-46.35671 1.6873,-46.93334 2.8227,-1.08316 21.7801,-0.72214 23.9828,0.45674 1.9748,1.05689 2.0633,2.58821 2.0633,35.73333 0,34.62914 0,34.62914 11.0694,34.62914 13.7746,0 13.8934,0.10794 13.9233,12.63951 0.035,14.84343 1.5229,14.02716 -25.5636,14.02716 -21.4736,0 -23.0283,-0.13251 -25.0291,-2.13333 z m 60.8,0 c -2.0678,-2.06779 -2.1334,-3.55556 -2.1334,-48.41921 0,-41.22268 0.1846,-46.35671 1.6873,-46.93334 2.8227,-1.08316 21.7801,-0.72214 23.9828,0.45674 1.9748,1.05689 2.0633,2.58821 2.0633,35.73333 0,34.62914 0,34.62914 11.0694,34.62914 13.7746,0 13.8934,0.10794 13.9233,12.63951 0.035,14.84343 1.5229,14.02716 -25.5636,14.02716 -21.4736,0 -23.0283,-0.13251 -25.0291,-2.13333 z m 57.633,0.57318 c -1.7461,-2.10394 -2.6225,-13.01804 -1.4164,-17.63985 0.9371,-3.59138 1.1949,-3.75361 6.7788,-4.26667 5.8046,-0.53333 5.8046,-0.53333 6.0905,-25.86666 0.286,-25.33334 0.286,-25.33334 -5.6264,-25.33334 -5.365,0 -6.0087,-0.25328 -6.9527,-2.7361 -1.3756,-3.61854 -1.3331,-16.05686 0.064,-18.66735 1.0424,-1.94775 2.473,-2.06321 25.5625,-2.06321 28.3946,0 26.6667,-0.76025 26.6667,11.73333 0,10.34928 -0.8853,11.73333 -7.5042,11.73333 -5.2958,0 -5.2958,0 -5.2958,25.6 0,25.6 0,25.6 5.9001,25.6 7.1166,0 7.4332,0.50419 7.4332,11.8367 0,12.21326 1.3375,11.62997 -26.6667,11.62997 -19.5303,0 -23.9683,-0.27659 -25.0336,-1.56015 z m 152.1574,0.22682 c -1.6721,-1.22688 -1.7949,-5.12322 -1.5372,-48.8 0.2801,-47.46667 0.2801,-47.46667 26.872,-47.75239 20.5628,-0.22093 26.7866,0.0209 27.4503,1.06667 1.2516,1.97172 1.0827,18.7347 -0.2131,21.15584 -1.0009,1.87043 -2.3464,2.06321 -14.4,2.06321 -13.2958,0 -13.2958,0 -13.2958,7.46667 0,7.46666 0,7.46666 10.0566,7.46666 10.0566,0 10.0566,0 10.6725,5.6 0.3387,3.08 0.2353,7.28 -0.2298,9.33334 -0.8456,3.73333 -0.8456,3.73333 -10.4058,4.26666 -9.5601,0.53334 -9.5601,0.53334 -9.8755,7.73334 -0.3155,7.2 -0.3155,7.2 12.9361,7.2 11.0357,0 13.4962,0.29546 14.7154,1.76708 1.9426,2.34496 1.8821,18.73442 -0.078,21.09615 -1.185,1.42782 -4.974,1.6701 -26.1182,1.6701 -18.1054,0 -25.2191,-0.35726 -26.5495,-1.33333 z m 70.7429,0.37892 c -2.6667,-0.74177 -2.6667,-0.74177 -2.6667,-48.69368 0,-47.95191 0,-47.95191 11.9276,-47.91606 9.6014,0.0289 12.3058,0.382 13.8667,1.81064 1.0665,0.97612 6.7391,11.14991 12.6057,22.6084 5.8667,11.4585 11.0267,20.8437 11.4667,20.85603 0.44,0.0124 0.8,-10.00161 0.8,-22.25318 0,-25.74934 -1.1623,-23.55061 12.4639,-23.57651 14.441,-0.0274 13.1361,-4.83136 13.1361,48.36176 0,39.42696 -0.2326,46.48884 -1.5677,47.59689 -1.6537,1.37245 -19.7639,1.91681 -23.5585,0.70813 -1.3414,-0.4273 -6.2173,-8.39678 -13.8071,-22.56794 -11.7334,-21.90738 -11.7334,-21.90738 -12.2667,0.20943 -0.5333,22.1168 -0.5333,22.1168 -3.2,22.85733 -3.4469,0.9572 -15.7572,0.9564 -19.2,-10e-4 z m 169.2571,-0.37892 c -1.6721,-1.22688 -1.7949,-5.12322 -1.5372,-48.8 0.2801,-47.46667 0.2801,-47.46667 26.872,-47.75239 20.5628,-0.22093 26.7866,0.0209 27.4503,1.06667 1.2516,1.97172 1.0827,18.7347 -0.2131,21.15584 -1.0009,1.87043 -2.3464,2.06321 -14.4,2.06321 -13.2958,0 -13.2958,0 -13.2958,7.46667 0,7.46666 0,7.46666 10.0566,7.46666 10.0566,0 10.0566,0 10.6725,5.6 0.3387,3.08 0.2353,7.28 -0.2298,9.33334 -0.8456,3.73333 -0.8456,3.73333 -10.4058,4.26666 -9.5601,0.53334 -9.5601,0.53334 -9.8755,7.73334 -0.3155,7.2 -0.3155,7.2 12.9361,7.2 11.0357,0 13.4962,0.29546 14.7154,1.76708 1.9426,2.34496 1.8821,18.73442 -0.078,21.09615 -1.185,1.42782 -4.974,1.6701 -26.1182,1.6701 -18.1054,0 -25.2191,-0.35726 -26.5495,-1.33333 z M 1025.0667,633.46154 c -53.44417,-5.43267 -96.39677,-26.70075 -111.24899,-55.08517 -7.03809,-13.45066 -8.75115,-21.12034 -8.7502,-39.17639 9.6e-4,-18.3237 1.47969,-26.83718 8.15197,-46.93333 7.87971,-23.73283 16.24711,-37.65448 23.76586,-39.54157 4.26031,-1.06926 9.3137,0.95227 18.74799,7.49989 32.77408,22.74596 70.10727,37.90835 93.33877,37.90835 17.5279,0 31.4677,-10.87594 31.4449,-24.53333 -0.011,-4.37403 -4.7479,-13.03049 -9.7252,-17.75852 -6.6823,-6.34769 -13.0934,-10.11087 -43.0585,-25.27448 -47.73934,-24.15815 -67.34169,-38.6312 -84.01857,-62.03367 -6.37055,-8.93973 -15.57818,-27.67501 -19.39624,-39.46666 -6.88272,-21.25648 -10.10019,-49.43146 -8.12127,-71.1171 4.01407,-43.98773 17.91723,-74.33122 46.31175,-101.07484 19.15235,-18.03882 47.55503,-32.43116 78.02433,-39.53687 18.8963,-4.40677 32.2961,-5.77412 56.5334,-5.76879 33.7588,0.007 63.678,4.30578 95.4283,13.70972 21.4197,6.34417 31.512,12.64377 36.5094,22.78902 2.1011,4.26555 2.4489,6.56362 2.3713,15.66553 -0.115,13.47434 -2.2432,21.69351 -13.396,51.73333 -10.2259,27.54363 -14.7134,36.97531 -20.3619,42.79568 -4.0024,4.1243 -4.5519,4.35769 -9.2038,3.90984 -2.7211,-0.26196 -8.927,-2.27362 -13.791,-4.47036 -46.6119,-21.05168 -83.5506,-22.06331 -97.3623,-2.66644 -3.1414,4.41163 -4.0266,13.81868 -1.8004,19.13226 4.0156,9.58468 11.973,15.16236 38.9594,27.30864 63.3066,28.4935 99.0047,56.35789 116.4224,90.87412 7.8906,15.63639 13.5556,37.56087 14.9304,57.78292 3.5273,51.88346 -15.353,106.18895 -48.4059,139.22968 -24.9015,24.89236 -58.2196,38.77686 -104.9536,43.73694 -15.8001,1.67694 -52.4697,1.87382 -67.3463,0.3616 z m 1077.8666,-4.77726 c -30.0178,-3.15204 -38.6691,-4.94753 -45.445,-9.43163 -9.6166,-6.36399 -14.0388,-17.2963 -19.2188,-47.51224 -6.4668,-37.7225 -11.3344,-49.90408 -22.137,-55.40113 -3.5515,-1.80722 -7.7686,-1.99776 -51.8658,-2.34345 -53.7146,-0.42107 -52.8559,-0.52806 -56.4442,7.0336 -1.8013,3.79597 -4.9792,18.12065 -9.1188,41.10389 -4.6335,25.72498 -9.0124,40.1722 -14.6352,48.28598 -8.3939,12.11248 -33.2138,17.49838 -75.9835,16.48838 -14.3823,-0.33962 -26.4164,-1.18541 -32.0754,-2.25432 -9.0447,-1.70841 -25.7918,-5.81336 -26.4655,-6.48705 -0.7004,-0.70038 4.1265,-25.28326 7.6964,-39.19679 1.9995,-7.79325 7.4914,-27.36954 12.2042,-43.50287 10.5172,-36.00379 41.5876,-153.33058 69.9122,-263.99999 6.7568,-26.4 15.6717,-60.72 19.8108,-76.26667 4.1392,-15.54666 8.7326,-34.02666 10.2076,-41.06666 3.4388,-16.41301 5.3752,-22.23544 8.7152,-26.20475 5.224,-6.20836 7.3901,-6.72791 31.2428,-7.49342 12.0267,-0.38597 33.0173,-1.3207 46.6458,-2.07716 20.3492,-1.1295 28.9306,-1.12466 48,0.0271 12.7715,0.77136 32.3409,1.69846 43.4876,2.06024 20.8425,0.67646 22.9028,1.09826 27.9891,5.73031 3.08,2.80494 6.1046,10.96573 8.234,22.21605 0.9308,4.9179 3.8074,16.86164 6.3922,26.54164 2.585,9.68 8.772,34.16 13.7489,54.4 4.9769,20.24 16.5004,65.6 25.6077,100.79999 9.1073,35.2 23.3388,90.64 31.6256,123.2 8.2867,32.56 18.6228,71.2 22.9692,85.86666 4.3463,14.66667 9.366,32.66667 11.1547,40 3.1053,12.73144 7.3266,39.97731 6.3448,40.95323 -0.6653,0.66132 -31.7215,5.74901 -43.1329,7.06612 -10.3361,1.19299 -48.466,2.20005 -55.4667,1.46495 z M 2000.4001,411.99999 c -11.801,-42.39309 -18.7351,-70.95965 -23.2551,-95.80325 -2.4782,-13.62118 -5.945,-37.87115 -5.945,-41.58472 0,-0.99764 -1.1073,-1.54536 -3.1243,-1.54536 -3.8039,0 -1.3297,-8.25385 -23.5015,78.4 -9.4569,36.95999 -17.3997,67.79999 -17.6508,68.53333 -0.3596,1.05037 7.6643,1.33333 37.8092,1.33333 38.2657,0 38.2657,0 35.6675,-9.33333 z m 256.1332,216.20049 c -3.52,-0.54384 -8.56,-2.09644 -11.2,-3.45023 -9.5562,-4.90043 -14.5107,-21.25428 -16.9812,-56.05158 -2.7324,-38.48701 4.9268,-62.56393 21.5006,-67.58713 3.1998,-0.96982 10.948,-1.3095 26.1473,-1.1463 21.6,0.23193 21.6,0.23193 21.6,-127.17535 0,-127.40728 0,-127.40728 -22.1333,-127.16526 -26.2765,0.28733 -30.4206,-0.52242 -37.159,-7.26078 -5.2264,-5.22645 -8.5113,-13.15548 -10.8116,-26.09719 -2.1009,-11.8201 -1.2693,-40.84597 1.7419,-60.8 2.7942,-18.51655 6.6027,-26.85962 13.962,-30.58594 6.4656,-3.27381 18.6026,-4.98629 29.2202,-4.12287 4.7556,0.38672 55.4465,1.0344 112.6465,1.43931 102.6825,0.72685 104.054,0.76439 108.2666,2.9645 8.5664,4.47391 12.2572,13.54934 16.0116,39.37167 3.7427,25.74175 2.041,53.044 -4.1795,67.05937 -6.9921,15.75372 -16.756,19.5543 -46.6589,18.16184 -15.8398,-0.7376 -15.8398,-0.7376 -15.8398,126.87244 0,127.61002 0,127.61002 20.5333,127.35818 17.1617,-0.21049 21.5396,0.0593 26.6619,1.64324 10.8774,3.3635 16.4671,10.38115 21.1427,26.5437 3.2261,11.15186 3.9683,36.20903 1.604,54.15124 -3.7315,28.31723 -8.2576,38.50112 -19.2753,43.37071 -1.1733,0.51858 -48.9333,1.27165 -106.1333,1.67348 -57.2,0.40184 -108.56,0.97612 -114.1333,1.27617 -5.5734,0.30007 -13.0134,0.10059 -16.5334,-0.44322 z M 1347.2,627.5904 c -24.5907,-2.28094 -34.1141,-4.66001 -38.6259,-9.64922 -5.7138,-6.31845 -7.6116,-40.71961 -4.6381,-84.07453 1.5378,-22.42149 1.735,-49.00342 1.5883,-214.09315 -0.1625,-182.72384 -0.1067,-188.60048 1.8386,-191.99999 1.2263,-2.14365 4.0725,-4.54346 7.3217,-6.17351 5.311,-2.66449 5.3451,-2.66695 41.5821,-3.00854 51.1081,-0.48177 66.8882,1.10761 82.3249,8.29181 15.7101,7.31144 25.4993,21.5149 43.4086,62.98339 3.9273,9.09333 10.7232,23.25333 15.1021,31.46667 4.3788,8.21333 18.7568,36.29333 31.951,62.39999 13.1943,26.10667 27.3669,53.46667 31.4948,60.8 7.505,13.33334 7.505,13.33334 6.8819,-79.99999 -0.3427,-51.33334 -0.7147,-100.77333 -0.8266,-109.86667 -0.1933,-15.71226 -0.072,-16.79819 2.4633,-21.86666 4.6678,-9.33563 12.7732,-11.77848 48,-14.4665 22.3897,-1.70847 61.2962,0.89444 73.6944,4.93029 12.5105,4.0724 14.3392,12.33285 13.2095,59.66954 -0.406,17.01333 -0.9013,120.42647 -1.1006,229.80698 -0.352,193.12481 -0.4209,198.95245 -2.381,201.59999 -5.3664,7.24845 -11.5304,9.08282 -35.9557,10.70041 -33.9835,2.25058 -81.8985,0.31366 -93.7169,-3.78842 -6.1695,-2.14138 -14.4888,-10.09333 -19.657,-18.78893 -1.929,-3.24555 -7.4951,-14.48754 -12.3691,-24.98219 -4.8741,-10.49465 -12.2242,-25.08119 -16.3337,-32.41452 -9.7606,-17.41795 -28.9014,-53.15801 -44.5583,-83.2 -6.8793,-13.2 -16.0939,-30.3212 -20.4768,-38.04712 -4.3829,-7.72592 -9.6007,-17.80092 -11.5952,-22.38889 -1.9944,-4.58796 -4.1523,-8.51709 -4.7952,-8.73139 -1.2002,-0.40005 -0.6518,170.49655 0.6336,197.48328 0.9516,19.97644 -2.0096,28.64196 -11.0828,32.43302 -6.8889,2.87839 -25.842,4.70984 -52.4486,5.06814 -14.3733,0.19357 -28.2933,0.15159 -30.9333,-0.0933 z m 1234.2202,-2.08479 c -13.7223,-3.68934 -21.2728,-12.51334 -25.7769,-30.1245 -2.0445,-7.99383 -2.0939,-13.29591 -2.173,-233.49267 -0.081,-225.31312 -0.081,-225.31312 2.2101,-230.04576 5.5762,-11.51903 16.1642,-13.47254 73.1196,-13.49089 38.5271,-0.0124 52.7372,0.99071 61.7377,4.35821 10.3982,3.8905 13.8224,10.5796 13.6284,26.62333 -0.06,4.98667 -0.3836,83.09032 -0.7184,173.56367 -0.6089,164.49701 -0.6089,164.49701 55.1717,164.8 55.7806,0.30299 55.7806,0.30299 59.79,2.79582 10.7563,6.68756 16.1304,29.62403 16.0361,68.4405 -0.098,40.59834 -7.0129,63.45049 -20.3158,67.14491 -2.6576,0.73807 -41.3362,1.08833 -115.463,1.0456 -94.1119,-0.0543 -112.3666,-0.3062 -117.2465,-1.61822 z"
         id="path278" />
      <path
         style="fill:#788bf4;stroke-width:1.06667"
         d="m 1540.2667,974.9333 c -2.0678,-2.06778 -2.1334,-3.55555 -2.1334,-48.41921 0,-41.22267 0.1846,-46.3567 1.6873,-46.93333 2.8227,-1.08317 21.7801,-0.72214 23.9828,0.45674 1.9748,1.05688 2.0633,2.58821 2.0633,35.73333 0,34.62914 0,34.62914 11.0694,34.62914 13.7746,0 13.8934,0.10794 13.9233,12.63951 0.035,14.84342 1.5229,14.02716 -25.5636,14.02716 -21.4736,0 -23.0283,-0.13252 -25.0291,-2.13334 z M 336.91578,814.97957 c -6.5998,-1.20369 -11.68211,-3.71915 -15.43003,-7.63701 -2.70534,-2.82801 -3.07212,-3.97583 -2.97519,-9.31073 0.11353,-6.24814 3.59817,-16.16519 5.68011,-16.16519 0.61083,0 3.39782,1.39474 6.19331,3.09942 12.40584,7.56506 23.29742,6.94502 21.2507,-1.20976 -0.51307,-2.04425 -2.78654,-3.80344 -9.28359,-7.18357 -14.604,-7.59783 -19.1917,-13.08006 -21.12495,-25.24393 -3.36884,-21.19668 10.25926,-35.59549 33.69023,-35.59549 9.9138,0 21.85813,2.65319 24.35245,5.40939 1.63874,1.81077 1.7349,2.76096 0.72256,7.13969 -0.64226,2.778 -2.1693,7.38527 -3.39343,10.23837 -1.92874,4.49536 -2.54403,5.09665 -4.61182,4.50688 -14.0716,-4.01351 -18.50345,-4.23277 -21.14799,-1.0463 -2.78013,3.34986 -0.188,6.48946 9.29389,11.25678 10.78681,5.42341 17.75218,11.17978 20.83146,17.21566 1.8838,3.69254 2.14062,5.74671 1.75076,14.00342 -0.69957,14.81593 -5.92494,23.38764 -17.33226,28.43194 -5.92286,2.61907 -19.92838,3.64757 -28.46621,2.09043 z m 320.15089,-1.0005 c -2.66667,-0.74158 -2.66667,-0.74158 -2.9443,-48.40393 -0.32049,-55.02025 -2.01422,-49.47543 14.81958,-48.51561 6.60464,0.37659 10.09403,1.06181 11.36175,2.23117 1.00629,0.92821 6.62963,11.05824 12.4963,22.51117 5.86667,11.45291 11.02667,20.83278 11.46667,20.84413 0.44,0.0113 0.8,-10.00338 0.8,-22.25495 0,-25.74934 -1.16238,-23.55061 12.46389,-23.57651 14.44096,-0.0274 13.13611,-4.83136 13.13611,48.36176 0,38.5697 -0.25137,46.50441 -1.50624,47.54586 -1.53448,1.27351 -21.18821,1.78882 -24.16831,0.63369 -0.839,-0.32522 -6.80545,-10.46194 -13.25879,-22.52606 C 680,768.89503 680,768.89503 679.46667,791.1049 c -0.53334,22.20988 -0.53334,22.20988 -3.73334,22.89294 -4.28412,0.91448 -15.35081,0.90335 -18.66666,-0.0188 z m 559.73333,0.1772 c -2.7664,-0.28937 -4,-0.94054 -4,-2.11146 0,-0.93118 5.3221,-22.14221 11.8269,-47.13561 7.5813,-29.12973 12.4408,-45.92119 13.5373,-46.77589 1.196,-0.93245 6.5586,-1.33333 17.8358,-1.33333 11.3108,0 16.6175,0.39811 17.7729,1.33333 1.4932,1.20858 25.9693,94.48006 25.0377,95.41165 -0.1968,0.19682 -4.9008,0.65627 -10.4534,1.02101 -13.747,0.903 -17.515,-0.35727 -19.0609,-6.37522 -4.373,-17.02338 -3.0908,-15.76125 -15.6712,-15.42645 -11.3612,0.30234 -11.3612,0.30234 -13.7241,9.71111 -1.2996,5.17482 -2.63,9.67579 -2.9564,10.00215 -1.7885,1.78859 -11.4207,2.59127 -20.1446,1.67871 z m 44,-39.77441 c 0,-1.3935 -5.1881,-25.63662 -5.9067,-27.60122 -0.299,-0.8173 -0.792,-1.23751 -1.0958,-0.93379 -0.5465,0.54659 -7.8898,27.27826 -7.9169,28.81979 -0.011,0.44 3.3461,0.8 7.4527,0.8 4.3498,0 7.4667,-0.45283 7.4667,-1.08478 z m 732.8331,38.9913 c -1.7462,-2.10394 -2.6225,-13.01804 -1.4165,-17.63985 0.9371,-3.59138 1.1949,-3.75361 6.7788,-4.26667 5.8046,-0.53333 5.8046,-0.53333 6.0906,-25.86666 0.2859,-25.33334 0.2859,-25.33334 -5.6265,-25.33334 -5.365,0 -6.0086,-0.25328 -6.9526,-2.7361 -0.5721,-1.50486 -1.0402,-5.55361 -1.0402,-8.99723 0,-3.44361 0.4681,-7.49237 1.0402,-8.99723 1.0403,-2.7361 1.0403,-2.7361 25.5625,-2.7361 28.4676,0 26.7306,-0.76243 26.7306,11.73333 0,10.34928 -0.8852,11.73333 -7.5042,11.73333 -5.2958,0 -5.2958,0 -5.2958,25.6 0,25.6 0,25.6 5.9002,25.6 7.1165,0 7.4331,0.50419 7.4331,11.8367 0,12.21326 1.3375,11.62997 -26.6666,11.62997 -19.5304,0 -23.9684,-0.27659 -25.0336,-1.56015 z M 536.57854,611.16748 C 500.43651,606.16513 468.80457,593.97647 441.6,574.56961 c -11.48445,-8.19262 -33.97956,-30.49254 -42.62586,-42.25596 -19.82063,-26.96631 -33.61002,-59.62589 -39.65185,-93.91366 -2.79396,-15.85596 -3.7899,-45.55986 -2.077,-61.94683 10.69696,-102.33601 86.97482,-182.7464 193.68804,-204.18155 97.90011,-19.66489 204.01788,24.73597 261.11586,109.2538 9.23298,13.66687 22.72569,36.92127 25.85072,44.55317 4.40455,10.75671 4.3066,19.78116 -0.32077,29.55242 -4.92957,10.40938 -12.25121,19.83609 -24.96879,32.14764 -18.24326,17.66081 -30.27773,25.627 -47.27702,31.29485 -5.28,1.76045 -12.06703,3.52391 -15.08228,3.91879 -5.48228,0.71798 -5.48228,0.71798 -6.20091,10.99618 -1.11787,15.98866 -4.60839,38.52974 -8.00825,51.71572 -17.13738,66.4654 -66.02035,110.46845 -137.79775,124.04156 -10.42594,1.97155 -50.94385,2.90572 -61.6656,1.42174 z m 31.7176,-23.26112 c 8.24801,-5.88289 11.40929,-18.04921 11.4086,-43.90638 -4.6e-4,-16.94728 -0.26143,-19.60004 -2.83331,-28.8 -4.83132,-17.28236 -3.74792,-16 -13.51741,-16 -6.73664,0 -11.40687,-0.87509 -23.2264,-4.35209 -19.68399,-5.79052 -25.95211,-5.95453 -40.39429,-1.05694 -14.80315,5.02001 -23.28072,8.9735 -30.8517,14.38765 -16.99639,12.15443 -23.93857,30.56629 -16.3757,43.43123 9.9918,16.99671 34.77438,28.33258 79.2274,36.23965 21.05921,3.74589 31.36821,3.76194 36.56281,0.0569 z m 46.45919,-6.73783 c 5.3779,-1.77918 15.63352,-6.03085 22.79028,-9.44817 33.30169,-15.90143 54.76788,-35.68525 61.15932,-56.36607 2.63225,-8.51719 2.62837,-12.06962 -0.0225,-20.65227 -3.95785,-12.81405 -17.55971,-29.02956 -35.96795,-42.87936 -8.48099,-6.38082 -26.82697,-16.62267 -29.77579,-16.62267 -0.64807,0 -1.49433,2.76 -1.88059,6.13333 -1.02204,8.92566 -4.51824,18.6148 -9.30171,25.77809 -4.48163,6.71132 -15.45819,17.56097 -22.44226,22.1828 -3.32496,2.20036 -4.12772,3.30723 -3.64809,5.03013 0.3382,1.21494 1.8835,8.68898 3.43397,16.60898 2.37361,12.12469 2.82587,17.34946 2.86227,33.06666 0.0398,17.17739 -1.69272,33.35356 -4.29993,40.14783 -0.57903,1.50895 -0.11482,1.64941 3.32092,1.00487 2.19673,-0.41212 8.39416,-2.20499 13.77207,-3.98415 z M 430.48384,522.01538 c 6.32268,-20.10145 30.81059,-39.88383 58.58283,-47.32569 2.93333,-0.78601 5.44867,-1.50809 5.58964,-1.60462 0.28781,-0.19704 -25.11667,-72.23436 -25.56795,-72.50089 -0.1586,-0.0937 -3.40836,-0.78162 -7.22169,-1.52879 C 445.8707,395.92118 433.03909,388.65275 408,368.54271 c -9.97333,-8.01004 -18.95684,-15.01705 -19.96335,-15.57113 -1.44931,-0.79784 -2.15456,-0.37979 -3.39016,2.00958 -6.23387,12.05498 -8.81636,42.54893 -5.52892,65.28549 2.1484,14.85885 7.69735,36.56117 12.6931,49.6436 4.68849,12.27779 15.73999,34.35872 21.27964,42.5168 4.10504,6.04536 13.11971,15.57293 14.73458,15.57293 0.4271,0 1.62363,-2.69307 2.65895,-5.9846 z m 287.79882,-80.41539 c 0.0919,-26.88281 -0.10486,-30.26899 -2.35548,-40.53334 -5.11713,-23.33736 -13.91531,-40.34507 -28.46051,-55.0169 -11.71692,-11.81891 -15.86356,-13.77866 -27.56535,-13.02768 -12.08962,0.77586 -22.01711,6.08908 -34.38526,18.40306 -7.45892,7.42625 -10.58921,11.47964 -13.62394,17.64153 -3.9966,8.1149 -5.80313,16.75733 -4.54806,21.75793 1.74051,6.93469 10.29356,13.21725 26.32024,19.33326 28.45491,10.85881 48.14292,25.16624 64.24648,46.68844 4.91928,6.57453 11.03673,13.83823 13.59434,16.14155 4.65022,4.18785 4.65022,4.18785 5.66371,1.06666 0.55742,-1.71665 1.05865,-16.32118 1.11383,-32.45451 z m -135.70435,30.12104 c 4.91904,-2.42165 9.09126,-5.64317 13.72812,-10.59999 14.92273,-15.95245 16.74415,-33.38918 4.46561,-42.75006 -5.35844,-4.08515 -10.72064,-3.74022 -26.48175,1.70348 -14.6793,5.07005 -19.41747,5.44151 -29.53786,2.31564 -12.28852,-3.79554 -24.22311,-13.44438 -40.55784,-32.79011 -3.59134,-4.25334 -6.86982,-7.73333 -7.28551,-7.73333 -2.11637,0 -5.53689,12.83076 -5.99289,22.47998 -0.43668,9.24062 -0.18352,11.08118 2.65822,19.3256 7.64828,22.18919 27.89179,41.97006 50.66693,49.50904 6.62252,2.19217 9.48011,2.52802 19.51445,2.29348 10.8297,-0.25313 12.31248,-0.54883 18.82252,-3.75373 z m -11.80419,-73.90919 c 7.21132,-3.67895 11.21075,-9.9973 19.0585,-30.10892 2.46744,-6.32339 6.27177,-14.15327 8.45408,-17.39973 5.29051,-7.87033 16.26549,-18.80892 28.45315,-28.35882 5.4827,-4.29607 9.98915,-8.094 10.01435,-8.43982 0.078,-1.07004 -4.44252,-2.75052 -14.39578,-5.35164 -8.15968,-2.1324 -11.97784,-2.48354 -26.09175,-2.39964 -14.22997,0.0846 -18.00877,0.4876 -27.12386,2.89273 -24.57192,6.4836 -52.89658,25.68778 -57.22314,38.79741 -5.95997,18.05885 17.08036,47.49479 41.147,52.56872 5.58571,1.17763 12.85728,0.27408 17.70745,-2.20029 z m 189.8532,-0.33763 c 13.69098,-4.8332 30.84808,-17.76696 41.74784,-31.47134 9.46691,-11.90285 11.92831,-17.29972 11.98099,-26.26955 0.058,-9.87737 -3.56436,-17.42282 -20.2271,-42.13333 -15.64922,-23.20747 -18.86635,-27.2203 -24.98446,-31.16398 -4.29238,-2.76682 -5.59018,-3.08406 -10.81133,-2.64275 -8.29555,0.70116 -15.63327,4.76099 -22.68099,12.54897 -11.83526,13.07838 -19.99165,35.75003 -20.11948,55.92443 -0.0771,12.17751 0.86543,15.45117 8.2086,28.50893 2.66649,4.74164 6.25362,12.60307 7.97139,17.46985 7.76766,22.00743 12.37121,25.06889 28.91454,19.22877 z M 469.03895,374.95488 c 3.22197,-0.92499 6.06166,-5.18292 8.58709,-12.87578 4.23286,-12.89393 11.53855,-24.43685 24.5252,-38.74961 4.24348,-4.6768 7.70735,-8.89917 7.69749,-9.38305 -0.01,-0.48388 -4.6021,-5.91978 -10.20494,-12.07978 -22.48326,-24.71901 -32.84769,-38.26832 -39.77702,-52 -1.85028,-3.66667 -3.65628,-6.66667 -4.01333,-6.66667 -2.22934,0 -16.47826,11.68804 -25.98677,21.31631 -20.22306,20.47777 -33.09993,42.10352 -33.03729,55.48369 0.0807,17.2399 37.33298,50.72286 61.52959,55.30381 5.10446,0.96639 6.22605,0.92975 10.67998,-0.34892 z m 225.35384,-62.15489 c 3.20943,-16.25878 9.48415,-30.11789 19.0104,-41.98862 7.35245,-9.16195 10.72907,-12.41424 21.17943,-20.39954 7.64928,-5.84496 7.64928,-5.84496 1.6,-11.69982 C 716.39788,219.56317 683.13938,201.64882 664,199.83157 c -9.0654,-0.86075 -14.70511,0.97059 -20.93519,6.7981 -9.33258,8.72952 -14.53406,22.77125 -15.55169,41.98274 -0.6906,13.03769 0.78133,23.49507 4.44022,31.54553 2.79119,6.1413 6.07359,8.48726 19.77999,14.13688 4.4,1.81362 15.2,8.06551 24,13.89307 8.8,5.82757 16.32598,10.62929 16.72438,10.67051 0.39841,0.0412 1.26919,-2.68508 1.93508,-6.05841 z M 568.31761,290.4147 c 37.17618,-8.73522 39.74589,-9.48789 39.19856,-11.48138 -1.89783,-6.91234 -2.90444,-18.2823 -2.36084,-26.66666 0.7936,-12.2403 4.4118,-24.75467 12.87562,-44.53333 6.73273,-15.73334 6.73273,-15.73334 -9.38244,-15.72422 -40.30844,0.0228 -70.56373,5.55615 -103.71114,18.96752 -14.7096,5.95148 -21.15405,9.89246 -24.6433,15.07015 -4.40238,6.5327 -2.33103,16.5898 5.99761,29.12045 4.98387,7.49837 39.00437,44.25134 41.17499,44.4821 0.58666,0.0624 18.96959,-4.09321 40.85094,-9.23463 z"
         id="path276" />
    </g>
  </g>
</svg>
